<svg width="30" height="24" viewBox="0 0 30 24" fill="none" xmlns="http://www.w3.org/2000/svg">
<path d="M29.9225 3.57864C29.7873 2.89743 29.4853 2.27405 29.0634 1.75907C28.9745 1.64687 28.8816 1.54638 28.7808 1.44589C28.0335 0.694834 26.9845 0.226318 25.8386 0.226318H4.16139C3.01547 0.226318 1.97027 0.694834 1.21939 1.44589C1.11891 1.54638 1.02598 1.64687 0.936797 1.75907C0.514746 2.27399 0.212695 2.89743 0.0812109 3.57864C0.0271875 3.84155 0 4.11325 0 4.38794V19.6125C0 20.1966 0.123867 20.758 0.344766 21.265C0.549668 21.749 0.851777 22.187 1.21934 22.5542C1.3125 22.6471 1.40502 22.7325 1.50598 22.8175C2.22586 23.4137 3.1551 23.7737 4.16139 23.7737H25.8386C26.8453 23.7737 27.7785 23.4137 28.4943 22.8137C28.5949 22.7325 28.6879 22.6471 28.7808 22.5542C29.1482 22.187 29.4503 21.749 29.6594 21.265V21.2613C29.8802 20.7543 29.9999 20.1966 29.9999 19.6126V4.38794C30 4.11325 29.9732 3.84155 29.9225 3.57864ZM2.72514 2.95146C3.09691 2.58009 3.59619 2.35526 4.16139 2.35526H25.8386C26.4038 2.35526 26.9075 2.58009 27.2749 2.95146C27.3406 3.01761 27.4025 3.09132 27.4572 3.16456L16.0955 13.0666C15.7821 13.3412 15.395 13.4769 15 13.4769C14.6089 13.4769 14.2221 13.3412 13.9046 13.0666L2.54719 3.16034C2.59746 3.0871 2.65939 3.01761 2.72514 2.95146ZM2.12895 19.6125V5.36341L10.3511 12.5362L2.13311 19.7013C2.12895 19.6741 2.12895 19.6435 2.12895 19.6125ZM25.8386 21.6444H4.16139C3.79336 21.6444 3.449 21.5476 3.1551 21.3777L11.8257 13.8215L12.6352 14.5257C13.3126 15.1143 14.1602 15.4124 15 15.4124C15.8441 15.4124 16.6917 15.1143 17.3691 14.5257L18.1781 13.8215L26.8453 21.3777C26.551 21.5476 26.2066 21.6444 25.8386 21.6444ZM27.8711 19.6125C27.8711 19.6435 27.8711 19.6741 27.8671 19.7013L19.6492 12.5403L27.8711 5.36722V19.6125Z" fill="#141414"/>
<path d="M29.9225 3.57864C29.7873 2.89743 29.4853 2.27405 29.0634 1.75907C28.9745 1.64687 28.8816 1.54638 28.7808 1.44589C28.0335 0.694834 26.9845 0.226318 25.8386 0.226318H4.16139C3.01547 0.226318 1.97027 0.694834 1.21939 1.44589C1.11891 1.54638 1.02598 1.64687 0.936797 1.75907C0.514746 2.27399 0.212695 2.89743 0.0812109 3.57864C0.0271875 3.84155 0 4.11325 0 4.38794V19.6125C0 20.1966 0.123867 20.758 0.344766 21.265C0.549668 21.749 0.851777 22.187 1.21934 22.5542C1.3125 22.6471 1.40502 22.7325 1.50598 22.8175C2.22586 23.4137 3.1551 23.7737 4.16139 23.7737H25.8386C26.8453 23.7737 27.7785 23.4137 28.4943 22.8137C28.5949 22.7325 28.6879 22.6471 28.7808 22.5542C29.1482 22.187 29.4503 21.749 29.6594 21.265V21.2613C29.8802 20.7543 29.9999 20.1966 29.9999 19.6126V4.38794C30 4.11325 29.9732 3.84155 29.9225 3.57864ZM2.72514 2.95146C3.09691 2.58009 3.59619 2.35526 4.16139 2.35526H25.8386C26.4038 2.35526 26.9075 2.58009 27.2749 2.95146C27.3406 3.01761 27.4025 3.09132 27.4572 3.16456L16.0955 13.0666C15.7821 13.3412 15.395 13.4769 15 13.4769C14.6089 13.4769 14.2221 13.3412 13.9046 13.0666L2.54719 3.16034C2.59746 3.0871 2.65939 3.01761 2.72514 2.95146ZM2.12895 19.6125V5.36341L10.3511 12.5362L2.13311 19.7013C2.12895 19.6741 2.12895 19.6435 2.12895 19.6125ZM25.8386 21.6444H4.16139C3.79336 21.6444 3.449 21.5476 3.1551 21.3777L11.8257 13.8215L12.6352 14.5257C13.3126 15.1143 14.1602 15.4124 15 15.4124C15.8441 15.4124 16.6917 15.1143 17.3691 14.5257L18.1781 13.8215L26.8453 21.3777C26.551 21.5476 26.2066 21.6444 25.8386 21.6444ZM27.8711 19.6125C27.8711 19.6435 27.8711 19.6741 27.8671 19.7013L19.6492 12.5403L27.8711 5.36722V19.6125Z" fill="#141414"/>
<path d="M29.9225 3.57864C29.7873 2.89743 29.4853 2.27405 29.0634 1.75907C28.9745 1.64687 28.8816 1.54638 28.7808 1.44589C28.0335 0.694834 26.9845 0.226318 25.8386 0.226318H4.16139C3.01547 0.226318 1.97027 0.694834 1.21939 1.44589C1.11891 1.54638 1.02598 1.64687 0.936797 1.75907C0.514746 2.27399 0.212695 2.89743 0.0812109 3.57864C0.0271875 3.84155 0 4.11325 0 4.38794V19.6125C0 20.1966 0.123867 20.758 0.344766 21.265C0.549668 21.749 0.851777 22.187 1.21934 22.5542C1.3125 22.6471 1.40502 22.7325 1.50598 22.8175C2.22586 23.4137 3.1551 23.7737 4.16139 23.7737H25.8386C26.8453 23.7737 27.7785 23.4137 28.4943 22.8137C28.5949 22.7325 28.6879 22.6471 28.7808 22.5542C29.1482 22.187 29.4503 21.749 29.6594 21.265V21.2613C29.8802 20.7543 29.9999 20.1966 29.9999 19.6126V4.38794C30 4.11325 29.9732 3.84155 29.9225 3.57864ZM2.72514 2.95146C3.09691 2.58009 3.59619 2.35526 4.16139 2.35526H25.8386C26.4038 2.35526 26.9075 2.58009 27.2749 2.95146C27.3406 3.01761 27.4025 3.09132 27.4572 3.16456L16.0955 13.0666C15.7821 13.3412 15.395 13.4769 15 13.4769C14.6089 13.4769 14.2221 13.3412 13.9046 13.0666L2.54719 3.16034C2.59746 3.0871 2.65939 3.01761 2.72514 2.95146ZM2.12895 19.6125V5.36341L10.3511 12.5362L2.13311 19.7013C2.12895 19.6741 2.12895 19.6435 2.12895 19.6125ZM25.8386 21.6444H4.16139C3.79336 21.6444 3.449 21.5476 3.1551 21.3777L11.8257 13.8215L12.6352 14.5257C13.3126 15.1143 14.1602 15.4124 15 15.4124C15.8441 15.4124 16.6917 15.1143 17.3691 14.5257L18.1781 13.8215L26.8453 21.3777C26.551 21.5476 26.2066 21.6444 25.8386 21.6444ZM27.8711 19.6125C27.8711 19.6435 27.8711 19.6741 27.8671 19.7013L19.6492 12.5403L27.8711 5.36722V19.6125Z" fill="#292929"/>
<path d="M29.9225 3.57864C29.7873 2.89743 29.4853 2.27405 29.0634 1.75907C28.9745 1.64687 28.8816 1.54638 28.7808 1.44589C28.0335 0.694834 26.9845 0.226318 25.8386 0.226318H4.16139C3.01547 0.226318 1.97027 0.694834 1.21939 1.44589C1.11891 1.54638 1.02598 1.64687 0.936797 1.75907C0.514746 2.27399 0.212695 2.89743 0.0812109 3.57864C0.0271875 3.84155 0 4.11325 0 4.38794V19.6125C0 20.1966 0.123867 20.758 0.344766 21.265C0.549668 21.749 0.851777 22.187 1.21934 22.5542C1.3125 22.6471 1.40502 22.7325 1.50598 22.8175C2.22586 23.4137 3.1551 23.7737 4.16139 23.7737H25.8386C26.8453 23.7737 27.7785 23.4137 28.4943 22.8137C28.5949 22.7325 28.6879 22.6471 28.7808 22.5542C29.1482 22.187 29.4503 21.749 29.6594 21.265V21.2613C29.8802 20.7543 29.9999 20.1966 29.9999 19.6126V4.38794C30 4.11325 29.9732 3.84155 29.9225 3.57864ZM2.72514 2.95146C3.09691 2.58009 3.59619 2.35526 4.16139 2.35526H25.8386C26.4038 2.35526 26.9075 2.58009 27.2749 2.95146C27.3406 3.01761 27.4025 3.09132 27.4572 3.16456L16.0955 13.0666C15.7821 13.3412 15.395 13.4769 15 13.4769C14.6089 13.4769 14.2221 13.3412 13.9046 13.0666L2.54719 3.16034C2.59746 3.0871 2.65939 3.01761 2.72514 2.95146ZM2.12895 19.6125V5.36341L10.3511 12.5362L2.13311 19.7013C2.12895 19.6741 2.12895 19.6435 2.12895 19.6125ZM25.8386 21.6444H4.16139C3.79336 21.6444 3.449 21.5476 3.1551 21.3777L11.8257 13.8215L12.6352 14.5257C13.3126 15.1143 14.1602 15.4124 15 15.4124C15.8441 15.4124 16.6917 15.1143 17.3691 14.5257L18.1781 13.8215L26.8453 21.3777C26.551 21.5476 26.2066 21.6444 25.8386 21.6444ZM27.8711 19.6125C27.8711 19.6435 27.8711 19.6741 27.8671 19.7013L19.6492 12.5403L27.8711 5.36722V19.6125Z" fill="#292929"/>
</svg>
