<svg width="17" height="16" viewBox="0 0 17 16" fill="none" xmlns="http://www.w3.org/2000/svg">
<path id="&#232;&#183;&#175;&#229;&#190;&#132;" fill-rule="evenodd" clip-rule="evenodd" d="M14.9925 0.880958C15.8791 0.495772 16.8295 1.26933 16.673 2.24871L14.824 13.8166C14.6457 14.9319 13.4586 15.5719 12.4669 15.0161C11.6371 14.551 10.4059 13.8352 9.29637 13.087C8.74232 12.7134 7.04577 11.5155 7.2543 10.6627C7.4326 9.93361 10.2847 7.19407 11.9145 5.56485C12.5547 4.92487 12.2631 4.55516 11.507 5.1444C9.63146 6.60612 6.62024 8.82851 5.62446 9.45396C4.74589 10.0058 4.28717 10.0999 3.74 10.0058C2.74082 9.83396 1.81446 9.5679 1.05817 9.24441C0.0359784 8.80715 0.085769 7.35763 1.05748 6.9355L14.9925 0.880958Z" fill="#50171D"/>
</svg>
