<svg width="28" height="28" viewBox="0 0 28 28" fill="none" xmlns="http://www.w3.org/2000/svg">
<path fill-rule="evenodd" clip-rule="evenodd" d="M3.37503 14C3.37503 8.13198 8.132 3.375 14 3.375C19.868 3.375 24.625 8.13198 24.625 14C24.625 19.868 19.868 24.625 14 24.625C11.9098 24.625 9.96409 24.0228 8.32248 22.9826C8.01696 22.7891 7.6426 22.7374 7.29605 22.8407L3.69711 23.9149L5.05216 20.7441C5.21233 20.3694 5.17974 19.9401 4.96484 19.5939C3.95713 17.97 3.37503 16.0549 3.37503 14ZM14 0.875C6.75129 0.875 0.875027 6.75126 0.875027 14C0.875027 16.2976 1.46645 18.4604 2.50581 20.3409L0.350589 25.3838C0.160062 25.8296 0.244514 26.3454 0.567277 26.7071C0.890039 27.069 1.3929 27.2115 1.85749 27.0728L7.48176 25.3944C9.40306 26.4956 11.6296 27.125 14 27.125C21.2488 27.125 27.125 21.2487 27.125 14C27.125 6.75126 21.2488 0.875 14 0.875ZM16.8656 16.728L15.2229 17.8851C14.4535 17.4469 13.6029 16.8351 12.7496 15.9819C11.8626 15.0949 11.205 14.1791 10.7202 13.3391L11.7641 12.453C12.2121 12.0727 12.3348 11.4317 12.0588 10.9129L10.7286 8.41285C10.5494 8.07621 10.2265 7.83975 9.85144 7.77068C9.47641 7.70161 9.09039 7.8075 8.80309 8.05824L8.4087 8.40244C7.46029 9.23018 6.89938 10.5904 7.36426 11.9676C7.84623 13.3954 8.87479 15.6425 10.9819 17.7496C13.2489 20.0166 15.5516 20.9094 16.8983 21.2561C17.9832 21.5354 19.01 21.161 19.7335 20.5715L20.4729 19.969C20.7891 19.7114 20.9598 19.3155 20.93 18.9086C20.9001 18.5017 20.6736 18.135 20.3231 17.9261L18.2253 16.6761C17.8015 16.4237 17.269 16.444 16.8656 16.728Z" fill="#141414"/>
<path fill-rule="evenodd" clip-rule="evenodd" d="M3.37503 14C3.37503 8.13198 8.132 3.375 14 3.375C19.868 3.375 24.625 8.13198 24.625 14C24.625 19.868 19.868 24.625 14 24.625C11.9098 24.625 9.96409 24.0228 8.32248 22.9826C8.01696 22.7891 7.6426 22.7374 7.29605 22.8407L3.69711 23.9149L5.05216 20.7441C5.21233 20.3694 5.17974 19.9401 4.96484 19.5939C3.95713 17.97 3.37503 16.0549 3.37503 14ZM14 0.875C6.75129 0.875 0.875027 6.75126 0.875027 14C0.875027 16.2976 1.46645 18.4604 2.50581 20.3409L0.350589 25.3838C0.160062 25.8296 0.244514 26.3454 0.567277 26.7071C0.890039 27.069 1.3929 27.2115 1.85749 27.0728L7.48176 25.3944C9.40306 26.4956 11.6296 27.125 14 27.125C21.2488 27.125 27.125 21.2487 27.125 14C27.125 6.75126 21.2488 0.875 14 0.875ZM16.8656 16.728L15.2229 17.8851C14.4535 17.4469 13.6029 16.8351 12.7496 15.9819C11.8626 15.0949 11.205 14.1791 10.7202 13.3391L11.7641 12.453C12.2121 12.0727 12.3348 11.4317 12.0588 10.9129L10.7286 8.41285C10.5494 8.07621 10.2265 7.83975 9.85144 7.77068C9.47641 7.70161 9.09039 7.8075 8.80309 8.05824L8.4087 8.40244C7.46029 9.23018 6.89938 10.5904 7.36426 11.9676C7.84623 13.3954 8.87479 15.6425 10.9819 17.7496C13.2489 20.0166 15.5516 20.9094 16.8983 21.2561C17.9832 21.5354 19.01 21.161 19.7335 20.5715L20.4729 19.969C20.7891 19.7114 20.9598 19.3155 20.93 18.9086C20.9001 18.5017 20.6736 18.135 20.3231 17.9261L18.2253 16.6761C17.8015 16.4237 17.269 16.444 16.8656 16.728Z" fill="#141414"/>
<path fill-rule="evenodd" clip-rule="evenodd" d="M3.37503 14C3.37503 8.13198 8.132 3.375 14 3.375C19.868 3.375 24.625 8.13198 24.625 14C24.625 19.868 19.868 24.625 14 24.625C11.9098 24.625 9.96409 24.0228 8.32248 22.9826C8.01696 22.7891 7.6426 22.7374 7.29605 22.8407L3.69711 23.9149L5.05216 20.7441C5.21233 20.3694 5.17974 19.9401 4.96484 19.5939C3.95713 17.97 3.37503 16.0549 3.37503 14ZM14 0.875C6.75129 0.875 0.875027 6.75126 0.875027 14C0.875027 16.2976 1.46645 18.4604 2.50581 20.3409L0.350589 25.3838C0.160062 25.8296 0.244514 26.3454 0.567277 26.7071C0.890039 27.069 1.3929 27.2115 1.85749 27.0728L7.48176 25.3944C9.40306 26.4956 11.6296 27.125 14 27.125C21.2488 27.125 27.125 21.2487 27.125 14C27.125 6.75126 21.2488 0.875 14 0.875ZM16.8656 16.728L15.2229 17.8851C14.4535 17.4469 13.6029 16.8351 12.7496 15.9819C11.8626 15.0949 11.205 14.1791 10.7202 13.3391L11.7641 12.453C12.2121 12.0727 12.3348 11.4317 12.0588 10.9129L10.7286 8.41285C10.5494 8.07621 10.2265 7.83975 9.85144 7.77068C9.47641 7.70161 9.09039 7.8075 8.80309 8.05824L8.4087 8.40244C7.46029 9.23018 6.89938 10.5904 7.36426 11.9676C7.84623 13.3954 8.87479 15.6425 10.9819 17.7496C13.2489 20.0166 15.5516 20.9094 16.8983 21.2561C17.9832 21.5354 19.01 21.161 19.7335 20.5715L20.4729 19.969C20.7891 19.7114 20.9598 19.3155 20.93 18.9086C20.9001 18.5017 20.6736 18.135 20.3231 17.9261L18.2253 16.6761C17.8015 16.4237 17.269 16.444 16.8656 16.728Z" fill="#292929"/>
<path fill-rule="evenodd" clip-rule="evenodd" d="M3.37503 14C3.37503 8.13198 8.132 3.375 14 3.375C19.868 3.375 24.625 8.13198 24.625 14C24.625 19.868 19.868 24.625 14 24.625C11.9098 24.625 9.96409 24.0228 8.32248 22.9826C8.01696 22.7891 7.6426 22.7374 7.29605 22.8407L3.69711 23.9149L5.05216 20.7441C5.21233 20.3694 5.17974 19.9401 4.96484 19.5939C3.95713 17.97 3.37503 16.0549 3.37503 14ZM14 0.875C6.75129 0.875 0.875027 6.75126 0.875027 14C0.875027 16.2976 1.46645 18.4604 2.50581 20.3409L0.350589 25.3838C0.160062 25.8296 0.244514 26.3454 0.567277 26.7071C0.890039 27.069 1.3929 27.2115 1.85749 27.0728L7.48176 25.3944C9.40306 26.4956 11.6296 27.125 14 27.125C21.2488 27.125 27.125 21.2487 27.125 14C27.125 6.75126 21.2488 0.875 14 0.875ZM16.8656 16.728L15.2229 17.8851C14.4535 17.4469 13.6029 16.8351 12.7496 15.9819C11.8626 15.0949 11.205 14.1791 10.7202 13.3391L11.7641 12.453C12.2121 12.0727 12.3348 11.4317 12.0588 10.9129L10.7286 8.41285C10.5494 8.07621 10.2265 7.83975 9.85144 7.77068C9.47641 7.70161 9.09039 7.8075 8.80309 8.05824L8.4087 8.40244C7.46029 9.23018 6.89938 10.5904 7.36426 11.9676C7.84623 13.3954 8.87479 15.6425 10.9819 17.7496C13.2489 20.0166 15.5516 20.9094 16.8983 21.2561C17.9832 21.5354 19.01 21.161 19.7335 20.5715L20.4729 19.969C20.7891 19.7114 20.9598 19.3155 20.93 18.9086C20.9001 18.5017 20.6736 18.135 20.3231 17.9261L18.2253 16.6761C17.8015 16.4237 17.269 16.444 16.8656 16.728Z" fill="#292929"/>
</svg>
