<svg width="15" height="15" viewBox="0 0 15 15" fill="none" xmlns="http://www.w3.org/2000/svg">
<g clip-path="url(#clip0_343_33)">
<path d="M7.5 0C3.36437 0 0 3.36437 0 7.5C0 11.6356 3.36437 15 7.5 15C11.6356 15 15 11.6356 15 7.5C15 3.36437 11.6356 0 7.5 0ZM5 13.2275V13.125C5 11.7462 6.12125 10.625 7.5 10.625C8.87875 10.625 10 11.7462 10 13.125V13.2275C9.23375 13.5631 8.38875 13.75 7.5 13.75C6.61125 13.75 5.76625 13.5631 5 13.2275ZM11.2031 12.5319C10.9181 10.745 9.36625 9.375 7.5 9.375C5.63375 9.375 4.0825 10.745 3.79687 12.5319C2.25312 11.3925 1.25 9.56125 1.25 7.5C1.25 4.05375 4.05375 1.25 7.5 1.25C10.9462 1.25 13.75 4.05375 13.75 7.5C13.75 9.56125 12.7469 11.3925 11.2031 12.5319ZM7.5 3.125C6.12125 3.125 5 4.24625 5 5.625C5 7.00375 6.12125 8.125 7.5 8.125C8.87875 8.125 10 7.00375 10 5.625C10 4.24625 8.87875 3.125 7.5 3.125ZM7.5 6.875C6.81062 6.875 6.25 6.31438 6.25 5.625C6.25 4.93562 6.81062 4.375 7.5 4.375C8.18938 4.375 8.75 4.93562 8.75 5.625C8.75 6.31438 8.18938 6.875 7.5 6.875Z" fill="black"/>
</g>
<defs>
<clipPath id="clip0_343_33">
<rect width="15" height="15" fill="white"/>
</clipPath>
</defs>
</svg>
