<svg width="20" height="20" viewBox="0 0 20 20" fill="none" xmlns="http://www.w3.org/2000/svg">
<path d="M10 1.66666C8.35185 1.66666 6.74068 2.1554 5.37027 3.07108C3.99986 3.98675 2.93176 5.28824 2.30103 6.81096C1.6703 8.33368 1.50527 10.0092 1.82681 11.6257C2.14836 13.2422 2.94203 14.7271 4.10747 15.8925C5.2729 17.058 6.75776 17.8517 8.37427 18.1732C9.99078 18.4947 11.6663 18.3297 13.1891 17.699C14.7118 17.0683 16.0133 16.0001 16.9289 14.6297C17.8446 13.2593 18.3334 11.6482 18.3334 9.99999C18.3334 8.90564 18.1178 7.82201 17.699 6.81096C17.2802 5.79991 16.6664 4.88125 15.8926 4.10743C15.1188 3.33361 14.2001 2.71978 13.1891 2.30099C12.178 1.8822 11.0944 1.66666 10 1.66666ZM13.925 8.92499L9.75836 13.0917C9.68089 13.1698 9.58872 13.2318 9.48717 13.2741C9.38562 13.3164 9.2767 13.3382 9.16669 13.3382C9.05668 13.3382 8.94776 13.3164 8.84621 13.2741C8.74466 13.2318 8.65249 13.1698 8.57502 13.0917L6.07502 10.5917C5.99732 10.514 5.93569 10.4217 5.89364 10.3202C5.85159 10.2187 5.82995 10.1099 5.82995 9.99999C5.82995 9.77807 5.9181 9.56524 6.07502 9.40832C6.23194 9.2514 6.44477 9.16325 6.66669 9.16325C6.88861 9.16325 7.10144 9.2514 7.25836 9.40832L9.16669 11.325L12.7417 7.74166C12.8986 7.58474 13.1114 7.49658 13.3334 7.49658C13.5553 7.49658 13.7681 7.58474 13.925 7.74166C14.0819 7.89858 14.1701 8.1114 14.1701 8.33332C14.1701 8.55524 14.0819 8.76807 13.925 8.92499Z" fill="#BD8A8F"/>
</svg>
