<svg width="15" height="15" viewBox="0 0 15 15" fill="none" xmlns="http://www.w3.org/2000/svg">
<path d="M15 15H7.50385C6.03927 14.9993 4.60687 14.5707 3.3831 13.7669C2.15932 12.9631 1.19761 11.8192 0.616422 10.4762C0.035233 9.13323 -0.140052 7.64973 0.112158 6.20845C0.364368 4.76718 1.03306 3.43108 2.03586 2.36471C3.03867 1.29835 4.33179 0.548307 5.75595 0.206961C7.18012 -0.134385 8.67313 -0.0521223 10.0511 0.443616C11.429 0.939354 12.6317 1.82692 13.5111 2.99698C14.3904 4.16704 14.908 5.56851 15 7.02875V7.06813V15ZM7.50385 1.25C5.8446 1.25 4.25332 1.90848 3.08006 3.08058C1.9068 4.25269 1.24767 5.8424 1.24767 7.5C1.24767 9.1576 1.9068 10.7473 3.08006 11.9194C4.25332 13.0915 5.8446 13.75 7.50385 13.75H13.7488V7.08813C13.6415 5.50582 12.9372 4.02314 11.778 2.93952C10.6189 1.85589 9.09134 1.25207 7.50385 1.25Z" fill="black"/>
<path d="M8.11821 4.375H4.3645V5.625H8.11821V4.375Z" fill="black"/>
<path d="M10.6207 6.875H4.3645V8.125H10.6207V6.875Z" fill="black"/>
<path d="M10.6207 9.375H4.3645V10.625H10.6207V9.375Z" fill="black"/>
</svg>
