<svg width="30" height="30" viewBox="0 0 30 30" fill="none" xmlns="http://www.w3.org/2000/svg">
<g clip-path="url(#clip0_1_70)">
<path d="M14.75 2.5C14.5 2.5 14.25 2.625 14.125 2.75L12.375 4.375L10.375 4C9.75 3.875 9.375 4.25 9.25 4.75L8.875 7L6.75 8C6.25 8.25 6.125 8.75 6.375 9.25L7.375 11.25L6.375 13.25C6.125 13.75 6.375 14.25 6.75 14.5L8.875 15.5L9.25 17.75C9.375 18.25 9.875 18.625 10.375 18.5L12.75 18.125L14.5 19.75C14.875 20.125 15.5 20.125 15.875 19.75L17.625 18.125L20 18.5C20.5 18.625 21 18.25 21.125 17.75L21.5 15.5L23.625 14.5C24.125 14.25 24.25 13.75 24 13.25L22.625 11.25L23.625 9.25C23.875 8.75 23.75 8.25 23.25 8L21.125 7L20.75 4.75C20.625 4.25 20.125 3.875 19.625 4L17.25 4.375L15.5 2.75C15.375 2.5 15 2.5 14.75 2.5ZM7.625 16.375L3.75 24.125L8.25 23.5L10.5 27.5L13.75 20.875L13.5 20.625L12.25 19.5L10.5 19.75C9.375 19.875 8.25 19.125 8 18L7.625 16.375ZM22.375 16.375L22 18C21.75 19 20.875 19.75 19.875 19.75H19.625L17.875 19.5L16.625 20.625L16.375 20.875L19.625 27.5L21.875 23.625L26.375 24.25L22.375 16.375Z" fill="#DBB3B7"/>
</g>
<defs>
<clipPath id="clip0_1_70">
<rect width="30" height="30" fill="white"/>
</clipPath>
</defs>
</svg>
