<svg width="15" height="15" viewBox="0 0 15 15" fill="none" xmlns="http://www.w3.org/2000/svg">
<g clip-path="url(#clip0_343_13)">
<mask id="mask0_343_13" style="mask-type:luminance" maskUnits="userSpaceOnUse" x="0" y="0" width="15" height="15">
<path d="M15 0H0V15H15V0Z" fill="white"/>
</mask>
<g mask="url(#mask0_343_13)">
<path d="M14.4507 5.66814L9.71 0.926867C9.1233 0.341861 8.32855 0.0133514 7.5 0.0133514C6.67145 0.0133514 5.87675 0.341861 5.29 0.926867L0.549385 5.66814C0.374649 5.84174 0.236114 6.04829 0.141809 6.27584C0.0475045 6.50339 -0.000694 6.74744 7.54967e-06 6.99374V13.1294C7.54967e-06 13.6266 0.197551 14.1035 0.54918 14.4552C0.900815 14.8068 1.37773 15.0044 1.87501 15.0044H13.125C13.6223 15.0044 14.0992 14.8068 14.4508 14.4552C14.8024 14.1035 15 13.6266 15 13.1294V6.99374C15.0007 6.74744 14.9525 6.50339 14.8582 6.27584C14.7639 6.04829 14.6254 5.84174 14.4507 5.66814ZM9.375 13.7544H5.625V11.2956C5.625 10.7983 5.82255 10.3214 6.1742 9.96979C6.5258 9.61814 7.00275 9.42064 7.5 9.42064C7.9973 9.42064 8.4742 9.61814 8.82585 9.96979C9.17745 10.3214 9.375 10.7983 9.375 11.2956V13.7544ZM13.75 13.1294C13.75 13.2951 13.6841 13.4541 13.5669 13.5713C13.4497 13.6885 13.2907 13.7544 13.125 13.7544H10.625V11.2956C10.625 10.4668 10.2957 9.67194 9.7097 9.08589C9.12365 8.49984 8.3288 8.17064 7.5 8.17064C6.6712 8.17064 5.87635 8.49984 5.2903 9.08589C4.70425 9.67194 4.375 10.4668 4.375 11.2956V13.7544H1.87501C1.70925 13.7544 1.55028 13.6885 1.43307 13.5713C1.31586 13.4541 1.25001 13.2951 1.25001 13.1294V6.99374C1.25059 6.82809 1.31638 6.66934 1.43314 6.55189L6.17375 1.81249C6.52605 1.46182 7.0029 1.26496 7.5 1.26496C7.9971 1.26496 8.47395 1.46182 8.82625 1.81249L13.5669 6.55374C13.6832 6.67079 13.749 6.82874 13.75 6.99374V13.1294Z" fill="black"/>
</g>
</g>
<defs>
<clipPath id="clip0_343_13">
<rect width="15" height="15" fill="white"/>
</clipPath>
</defs>
</svg>
