<svg width="35" height="35" viewBox="0 0 35 35" fill="none" xmlns="http://www.w3.org/2000/svg">
<path d="M17.5536 0C12.1494 0 7.65845 4.38266 7.65845 9.78687V25.2131C7.65845 30.6184 12.1483 35 17.5536 35C22.9589 35 27.3405 30.6173 27.3405 25.2131V9.78687C27.3405 4.38266 22.9578 0 17.5536 0ZM25.1541 25.2131C25.1541 29.4033 21.7449 32.8125 17.5547 32.8125C13.3645 32.8125 9.84704 29.4033 9.84704 25.2131V9.78687C9.84704 5.59672 13.3645 2.1875 17.5547 2.1875C21.7449 2.1875 25.1541 5.59672 25.1541 9.78687V25.2131ZM17.512 6.5625C16.9083 6.5625 16.4183 7.0525 16.4183 7.65625V13.125C16.4183 13.7288 16.9083 14.2188 17.512 14.2188C18.1158 14.2188 18.6058 13.7288 18.6058 13.125V7.65625C18.6058 7.0525 18.1158 6.5625 17.512 6.5625Z" fill="#141414"/>
<path d="M17.5536 0C12.1494 0 7.65845 4.38266 7.65845 9.78687V25.2131C7.65845 30.6184 12.1483 35 17.5536 35C22.9589 35 27.3405 30.6173 27.3405 25.2131V9.78687C27.3405 4.38266 22.9578 0 17.5536 0ZM25.1541 25.2131C25.1541 29.4033 21.7449 32.8125 17.5547 32.8125C13.3645 32.8125 9.84704 29.4033 9.84704 25.2131V9.78687C9.84704 5.59672 13.3645 2.1875 17.5547 2.1875C21.7449 2.1875 25.1541 5.59672 25.1541 9.78687V25.2131ZM17.512 6.5625C16.9083 6.5625 16.4183 7.0525 16.4183 7.65625V13.125C16.4183 13.7288 16.9083 14.2188 17.512 14.2188C18.1158 14.2188 18.6058 13.7288 18.6058 13.125V7.65625C18.6058 7.0525 18.1158 6.5625 17.512 6.5625Z" fill="#141414"/>
<path d="M17.5536 0C12.1494 0 7.65845 4.38266 7.65845 9.78687V25.2131C7.65845 30.6184 12.1483 35 17.5536 35C22.9589 35 27.3405 30.6173 27.3405 25.2131V9.78687C27.3405 4.38266 22.9578 0 17.5536 0ZM25.1541 25.2131C25.1541 29.4033 21.7449 32.8125 17.5547 32.8125C13.3645 32.8125 9.84704 29.4033 9.84704 25.2131V9.78687C9.84704 5.59672 13.3645 2.1875 17.5547 2.1875C21.7449 2.1875 25.1541 5.59672 25.1541 9.78687V25.2131ZM17.512 6.5625C16.9083 6.5625 16.4183 7.0525 16.4183 7.65625V13.125C16.4183 13.7288 16.9083 14.2188 17.512 14.2188C18.1158 14.2188 18.6058 13.7288 18.6058 13.125V7.65625C18.6058 7.0525 18.1158 6.5625 17.512 6.5625Z" fill="#292929"/>
<path d="M17.5536 0C12.1494 0 7.65845 4.38266 7.65845 9.78687V25.2131C7.65845 30.6184 12.1483 35 17.5536 35C22.9589 35 27.3405 30.6173 27.3405 25.2131V9.78687C27.3405 4.38266 22.9578 0 17.5536 0ZM25.1541 25.2131C25.1541 29.4033 21.7449 32.8125 17.5547 32.8125C13.3645 32.8125 9.84704 29.4033 9.84704 25.2131V9.78687C9.84704 5.59672 13.3645 2.1875 17.5547 2.1875C21.7449 2.1875 25.1541 5.59672 25.1541 9.78687V25.2131ZM17.512 6.5625C16.9083 6.5625 16.4183 7.0525 16.4183 7.65625V13.125C16.4183 13.7288 16.9083 14.2188 17.512 14.2188C18.1158 14.2188 18.6058 13.7288 18.6058 13.125V7.65625C18.6058 7.0525 18.1158 6.5625 17.512 6.5625Z" fill="#292929"/>
</svg>
